<svg fill="currentColor" xmlns="http://www.w3.org/2000/svg" viewBox="0 0 168 34">
    <title>Dot Swap</title>
    <path d="m36.893.734.295.08c3 .8 4.787 3.878 3.983 6.864-.804 2.985-3.898 4.763-6.899 3.963l-.27-.072a22.86 22.86 0 0 0-7.313-.738 22.182 22.182 0 0 0-6.855 1.53c-4.099 1.635-7.57 4.484-9.856 8.07.065-1.566.304-3.125.713-4.643 1.479-5.493 5.02-10.084 9.967-12.927A21.351 21.351 0 0 1 36.893.734"/>
    <path d="m4.47 33.265-.295-.079c-3-.8-4.786-3.879-3.982-6.865.804-2.985 3.898-4.763 6.898-3.963l.27.072c2.382.639 4.852.888 7.314.738a22.182 22.182 0 0 0 6.854-1.53c4.1-1.635 7.571-4.484 9.856-8.07a21.267 21.267 0 0 1-.713 4.643c-1.478 5.493-5.019 10.084-9.967 12.927a21.348 21.348 0 0 1-16.234 2.127m55.683-7.725a4.289 4.289 0 0 0 1.006-1.328 5.844 5.844 0 0 0 .508-1.705c.093-.634.14-1.335.14-2.084v-7.247c0-1.099-.134-2.07-.4-2.886a4.132 4.132 0 0 0-1.402-1.999c-.68-.534-1.62-.94-2.794-1.207-1.189-.27-2.725-.407-4.565-.407h-.01v2.3h.044c.706 0 1.326.042 1.845.126.53.086.974.226 1.325.416.364.197.635.461.807.782.169.316.254.7.254 1.143v10.9c0 .514-.068.948-.204 1.29-.142.358-.4.659-.732.854-.332.202-.782.344-1.338.421-.53.075-1.203.113-2 .114v2.29c1.299-.003 2.443-.07 3.401-.205.962-.135 1.792-.337 2.468-.602.668-.26 1.222-.586 1.647-.966M46.548 6.906v20.178c0 .126.107.229.239.229h4.64V6.677h-4.645a.235.235 0 0 0-.234.229M78.733 25.55a5.488 5.488 0 0 0 1.29-2.186c.259-.835.39-1.737.39-2.682V13.33a9.24 9.24 0 0 0-.39-2.724 5.436 5.436 0 0 0-1.298-2.19c-.604-.625-1.415-1.13-2.409-1.504-.956-.359-2.153-.567-3.56-.618v2.56c.517.061.955.196 1.301.404.383.23.689.52.909.86.217.336.365.712.44 1.118.075.394.112.79.112 1.175v9.191c0 .385-.037.781-.111 1.175-.076.405-.221.78-.431 1.116a2.619 2.619 0 0 1-.904.856c-.347.204-.789.338-1.315.398v2.55c1.416-.046 2.618-.255 3.574-.625.994-.385 1.802-.897 2.402-1.522M65.587 8.415a5.41 5.41 0 0 0-1.28 2.196 9.41 9.41 0 0 0-.383 2.72v7.434c0 .944.131 1.842.39 2.67a5.392 5.392 0 0 0 1.289 2.161c.599.618 1.404 1.12 2.393 1.493.951.36 2.145.563 3.551.607v-2.549c-.518-.06-.955-.197-1.3-.405a2.664 2.664 0 0 1-.903-.86 3.215 3.215 0 0 1-.43-1.11 6.293 6.293 0 0 1-.112-1.17v-9.19c0-.388.038-.782.111-1.17.075-.402.224-.778.44-1.118.22-.344.523-.635.9-.865.342-.208.776-.344 1.294-.405v-2.56c-1.407.051-2.604.26-3.56.618-.994.373-1.801.878-2.4 1.503m15.868-1.473v2.999c0 .147.124.266.277.266h13.614a.272.272 0 0 0 .271-.266V6.942a.273.273 0 0 0-.271-.265H81.726a.273.273 0 0 0-.271.265m4.658 4.216v15.89c0 .145.124.264.277.264h4.342a.272.272 0 0 0 .276-.265V11.158h-4.895Zm24.027 15.191a4.961 4.961 0 0 0 1.484-1.483 3.525 3.525 0 0 0 .54-1.91 5.05 5.05 0 0 0-.403-2.026 6.897 6.897 0 0 0-1.094-1.735 10.857 10.857 0 0 0-1.636-1.535 32.191 32.191 0 0 0-2.026-1.434l-.503-.318-3.205 2.26.445.291a19.3 19.3 0 0 1 1.343.97c.424.333.819.701 1.18 1.1.348.387.631.8.842 1.224.217.436.327.892.327 1.357 0 .284-.04.55-.117.79-.08.25-.215.473-.4.665-.2.202-.441.357-.707.456-.27.101-.553.161-.84.18v2.517a11.066 11.066 0 0 0 2.545-.387c.847-.236 1.596-.567 2.225-.982M98.914 7.797a4.788 4.788 0 0 0-1.451 1.572c-.338.602-.51 1.289-.51 2.04 0 .648.12 1.235.358 1.747.241.519.566.996.966 1.419.405.429.871.829 1.386 1.19a36.54 36.54 0 0 0 1.612 1.066l1.093.73 3.22-2.281-.613-.404-.633-.418c-.346-.215-.68-.449-1.001-.7a5.628 5.628 0 0 1-.826-.785 3.411 3.411 0 0 1-.561-.907 2.737 2.737 0 0 1-.205-1.057c0-.28.049-.55.144-.804a1.94 1.94 0 0 1 .45-.69c.217-.208.47-.374.747-.491.252-.111.538-.184.854-.22V6.299c-1 .056-1.928.206-2.758.448-.88.256-1.643.61-2.272 1.05m11.046-.025c-.625-.45-1.37-.811-2.217-1.074a9.753 9.753 0 0 0-2.588-.417v2.58a2.342 2.342 0 0 1 1.463 1.066c.157.257.278.538.36.835a4.8 4.8 0 0 1 .141.717c.014.113.016.227.011.34-.002.05-.005.099-.009.147-.007.089.072.16.164.15l4.548-.501c.13-.014.23-.12.23-.247v-.053a4.255 4.255 0 0 0-.615-1.953 5.43 5.43 0 0 0-1.489-1.59M98.892 25.748c.6.555 1.358 1.014 2.253 1.365.848.334 1.862.532 3.017.591v-2.587a2.41 2.41 0 0 1-1.082-.544 3.148 3.148 0 0 1-.741-1.018 4.914 4.914 0 0 1-.38-1.271c-.051-.317-.09-.637-.117-.956a.184.184 0 0 0-.21-.162l-4.555.652a.14.14 0 0 0-.12.152c.094.65.28 1.286.555 1.893a5.85 5.85 0 0 0 1.38 1.886m27.613-19.072h-3.213a.188.188 0 0 0-.185.224l4.463 20.264a.191.191 0 0 0 .19.147H130.908a.188.188 0 0 0 .185-.224l-2.115-9.573-2.283-10.69a.193.193 0 0 0-.19-.148m5.569.155-1.838 10.642 1.95 9.098 4.021-19.674a.19.19 0 0 0-.185-.22H132.265a.19.19 0 0 0-.19.154m-9.763 2.108-1.84 8.514 1.739 7.944 1.718-9.26-1.617-7.198Zm-5.086-2.263h-3.755a.19.19 0 0 0-.186.222l4.174 20.264c.02.088.1.151.19.149h3.522c.123 0 .216-.108.19-.224l-2.115-9.585-1.829-10.67a.192.192 0 0 0-.19-.156m30.449 20.635h4.373c.094 0 .163-.087.136-.174l-6.097-20.363a.142.142 0 0 0-.137-.098h-3.355c-.092 0-.16.083-.138.168l1.846 7.231 3.234 13.131a.141.141 0 0 0 .138.105m-2.538-4.702-.464-2.163h-2.955l1.41-6.077-1.835-7.17-5.97 19.939c-.026.087.042.174.137.174h4.51a.14.14 0 0 0 .139-.102l1.253-4.6h3.775v-.001Z"/>
    <path d="M167.492 15.113c.337-.739.508-1.66.508-2.738 0-.863-.128-1.655-.38-2.356a4.297 4.297 0 0 0-1.216-1.782c-.557-.494-1.294-.881-2.189-1.15-.904-.272-2.024-.41-3.329-.41h-.909v2.355c.529.035.974.1 1.333.193.59.153 1.044.379 1.348.671.31.297.507.662.585 1.086.073.399.112.847.112 1.334 0 .593-.03 1.116-.086 1.554-.058.46-.198.847-.413 1.152-.221.314-.549.549-.973.699-.408.144-.966.217-1.663.217h-.243v2.313h.011c1.322 0 2.5-.11 3.501-.326.991-.213 1.832-.556 2.501-1.019a4.34 4.34 0 0 0 1.502-1.793"/>
    <path d="M153.888 6.89v20.208c0 .119.1.214.224.214h4.432a.22.22 0 0 0 .223-.214V6.89a.22.22 0 0 0-.223-.214h-4.437a.22.22 0 0 0-.219.214"/>
</svg>
