<svg fill="currentColor" xmlns="http://www.w3.org/2000/svg" viewBox="0 0 1700 1200">
    <title>Magic Eden</title>
    <path d="M1200.3 624.3h-22.2c-1.7 0-3.3-.7-4.6-1.9-1.2-1.2-1.9-2.8-2-4.5v-5.1c0-1.7.7-3.3 2-4.5 1.2-1.2 2.8-1.9 4.6-1.9h19c1.7 0 3.4-.7 4.6-1.9 1.2-1.2 1.9-2.8 1.9-4.5 0-1.7-.7-3.3-1.9-4.5-1.2-1.2-2.9-1.9-4.6-1.9H1178c-1.7 0-3.3-.7-4.6-1.9-1.2-1.2-1.9-2.8-2-4.5v-5.1c0-1.7.7-3.3 2-4.5 1.2-1.2 2.8-1.9 4.6-1.9h21.7c1.7 0 3.4-.7 4.6-1.9 1.2-1.2 1.9-2.8 1.9-4.5 0-1.7-.7-3.3-1.9-4.5-1.2-1.2-2.9-1.9-4.6-1.9h-26.1c-1 0-2 .3-2.8.9-.8.6-1.3 1.5-1.5 2.5l-13.9 64.7v1.3c.2 1.5 1 2.9 2.3 3.8 1.2 1 2.7 1.4 4.3 1.3h38.3c1.7 0 3.4-.7 4.6-1.9 1.2-1.2 1.9-2.8 1.9-4.5 0-1.7-.7-3.3-1.9-4.5-1.2-1.2-2.9-1.9-4.6-1.9zM717.7 563.1H709c-1.3 0-2.5.4-3.6 1.1-1.1.7-1.9 1.6-2.5 2.8l-19.1 45.4c0 .1 0 .2-.1.3-.1.1-.2.1-.3.1-.4 0-.4 0-.4-.4L663.9 567c-.5-1.2-1.2-2.2-2.2-3-1.7-1.3-3.9.4-4.3 2.6L642.9 632c-.1.7 0 1.5.4 2.1.5 1 1.3 1.9 2.3 2.5 1 .6 2.2.9 3.3.9h2.6c1.7-.1 3.3-.8 4.5-2 1.2-1.2 1.9-2.8 1.9-4.4v-42c0-.1 0-.2.1-.3.1-.1.2-.1.3-.1s.2 0 .3.1c.1.1.1.2.1.3l17.8 44.1c.5 1.2 1.3 2.2 2.4 2.9 1.1.7 2.4 1 3.7 1h1.7c1.3 0 2.5-.4 3.6-1.1 1.1-.7 1.9-1.6 2.5-2.8l17.8-43.7c0-.1 0-.2.1-.3.1-.1.2-.1.3-.1.1 0 .2 0 .3.1.1.1.1.2.1.3v41.6c0 1.7.7 3.3 2 4.5 1.2 1.2 2.8 1.9 4.6 1.9h2.6c1.7 0 3.3-.7 4.6-1.9 1.2-1.2 1.9-2.8 2-4.5v-61.7c-.3-1.7-1.2-3.3-2.5-4.4-1.2-1.1-2.9-1.8-4.6-1.9zM916.8 597.8h-19.1c-1.6 0-3.2.6-4.3 1.8-1.1 1.1-1.8 2.7-1.8 4.2 0 1.6.6 3.1 1.8 4.2 1.1 1.1 2.7 1.8 4.3 1.8h3.5c3.5 0 7 3 5.2 6.4-2.6 5.6-7.8 8.6-16.1 8.6-12.2 0-19.6-9-19.6-24.4 0-15.4 7.8-24.4 19.6-24.4 2.7-.1 5.4.4 7.9 1.6 2.4 1.2 4.5 3 6 5.2.7 1.2 1.7 2.3 2.9 3.1 1.2.8 2.6 1.2 4.1 1.2h3.9c.9.1 1.8-.1 2.6-.4.8-.3 1.5-.9 2.1-1.5.6-.7.9-1.5 1.1-2.3.2-.9.1-1.7-.1-2.6-2.7-5.6-7-10.3-12.5-13.5-5.4-3.2-11.7-4.8-18-4.5-20 0-35.2 14.1-35.2 38.1s14.3 38.1 35.6 38.1c19.1 0 32.6-12 32.6-31.3v-3c0-.8-.1-1.7-.5-2.5-.3-.8-.8-1.5-1.4-2.1-.6-.6-1.3-1.1-2.1-1.4-.8-.3-1.6-.4-2.5-.4zM803.8 567.4c-.4-1.2-1.3-2.3-2.4-3.1-1.1-.8-2.4-1.2-3.7-1.2h-11.3c-1.3 0-2.6.4-3.7 1.2-1.1.8-1.9 1.8-2.4 3.1L758.6 629c-.3 1-.4 2-.3 3 .1 1 .5 2 1.1 2.8.6.8 1.4 1.5 2.3 2 .9.5 1.9.7 2.9.8h3.5c1.3 0 2.6-.4 3.7-1.2 1.1-.8 1.9-1.8 2.4-3.1l2.6-8.1c.4-1.2 1.3-2.3 2.4-3.1 1.1-.8 2.4-1.2 3.7-1.2h17.8c1.3 0 2.6.4 3.7 1.2 1.1.8 1.9 1.8 2.4 3.1l2.6 8.1c.4 1.2 1.3 2.3 2.4 3.1 1.1.8 2.4 1.2 3.7 1.2h3.5c1 0 2-.3 2.9-.8.9-.5 1.7-1.2 2.3-2 .6-.8 1-1.8 1.1-2.8.1-1 .1-2-.3-3l-21.2-61.6zm-11.1 40.7h-1.3c-1 0-2-.3-3-.8-.9-.5-1.7-1.2-2.3-2-.6-.8-1-1.8-1.1-2.8-.1-1-.1-2 .3-3l6.5-19.7c0-.1 0-.2.1-.3.1-.1.2-.1.3-.1.1 0 .2 0 .3.1.1.1.1.2.1.3l6.5 19.7c.2 1 .2 2 0 3s-.6 1.9-1.3 2.8c-.6.8-1.4 1.5-2.3 2-.7.4-1.7.7-2.8.8zM967.2 563.1h-3c-1.7 0-3.3.7-4.6 1.9-1.2 1.2-1.9 2.8-2 4.5v61.7c0 1.7.7 3.3 2 4.5 1.2 1.2 2.8 1.9 4.6 1.9h3c1.7 0 3.3-.7 4.6-1.9 1.2-1.2 1.9-2.8 2-4.5v-61.7c-.1-1.7-.8-3.2-2-4.4-1.3-1.2-2.9-1.9-4.6-2zM1043.3 575.9c2.9-.1 5.8.6 8.4 1.9 2.6 1.4 4.8 3.3 6.4 5.8.6 1.5 1.6 2.8 2.9 3.7 1.3.9 2.9 1.4 4.5 1.4h3c.9.1 1.8-.1 2.6-.4.8-.3 1.5-.9 2.1-1.5.6-.7.9-1.5 1.1-2.3.2-.9.1-1.7-.1-2.6-4.3-12.9-16.1-20.1-31.3-20.1-20 0-35.2 13.7-35.2 38.1s14.8 38.1 35.2 38.1c16.1 0 27-8.6 30.9-19.3.3-.8.3-1.7.1-2.6-.2-.9-.6-1.7-1.1-2.3-.6-.7-1.3-1.2-2.1-1.5-.8-.3-1.7-.5-2.6-.4h-3.5c-1.6.1-3.1.7-4.4 1.6-1.3.9-2.3 2.1-3 3.6-1.4 2.5-3.6 4.5-6.1 5.8-2.5 1.4-5.4 2-8.3 1.9-11.3 0-19.1-8.6-19.1-24.4.1-15.9 7.9-24.5 19.6-24.5zM1268.5 563.1h-20.4c-1.7 0-3.3.7-4.6 1.9-1.2 1.2-1.9 2.8-2 4.5v61.7c0 1.7.7 3.3 2 4.5 1.2 1.2 2.8 1.9 4.6 1.9h20.4c23 0 37-14.1 37-37.3 0-23.1-14.4-37.2-37-37.2zm-.9 60.8h-3.5c-1.7 0-3.3-.7-4.6-1.9-1.2-1.2-1.9-2.8-2-4.5v-34.7c0-1.7.7-3.3 2-4.5 1.2-1.2 2.8-1.9 4.6-1.9h3.5c14.3 0 21.7 7.3 21.7 23.6.1 16.2-7.3 23.9-21.7 23.9zM1383.7 624.3h-22.2c-1.7 0-3.3-.7-4.6-1.9-1.2-1.2-1.9-2.8-2-4.5v-5.1c0-1.7.7-3.3 2-4.5 1.2-1.2 2.8-1.9 4.6-1.9h19.1c1.7 0 3.4-.7 4.6-1.9 1.2-1.2 1.9-2.8 1.9-4.5s-.7-3.3-1.9-4.5c-1.2-1.2-2.9-1.9-4.6-1.9h-19.1c-1.7 0-3.3-.7-4.6-1.9-1.2-1.2-1.9-2.8-2-4.5v-5.1c0-1.7.7-3.3 2-4.5 1.2-1.2 2.8-1.9 4.6-1.9h21.7c1.7 0 3.4-.7 4.6-1.9 1.2-1.2 1.9-2.8 1.9-4.5 0-1.7-.7-3.3-1.9-4.5-1.2-1.2-2.9-1.9-4.6-1.9h-37.8c-1.7 0-3.3.7-4.6 1.9-1.2 1.2-1.9 2.8-2 4.5V631c0 1.7.7 3.3 2 4.5 1.2 1.2 2.8 1.9 4.6 1.9h38.3c1.7 0 3.3-.7 4.6-1.9 1.2-1.2 1.9-2.8 2-4.5 0-.8-.1-1.7-.5-2.5-.3-.8-.8-1.5-1.4-2.1-.6-.6-1.3-1.1-2.1-1.4-.9-.5-1.7-.7-2.6-.7zM1482 563.1h-3c-1.7 0-3.3.7-4.6 1.9-1.2 1.2-1.9 2.8-2 4.5v39.8c0 .4 0 .4-.4.4h-.4l-30.4-43.7c-.6-.8-1.4-1.5-2.3-1.9-.9-.4-1.9-.7-2.9-.6h-4.1c-1.7 0-3.3.7-4.6 1.9-1.2 1.2-1.9 2.8-2 4.5v61.7c0 1.7.7 3.3 2 4.5 1.2 1.2 2.8 1.9 4.6 1.9h3c1.7 0 3.3-.7 4.6-1.9 1.2-1.2 1.9-2.8 2-4.5v-40.3c0-.1 0-.2.1-.3.1-.1.2-.1.3-.1h.4l30.9 43.7c.6.8 1.4 1.5 2.3 1.9.9.4 1.9.7 2.9.6h3.9c1.7 0 3.3-.7 4.6-1.9 1.2-1.2 1.9-2.8 2-4.5V569c-.3-1.6-1.1-3.1-2.3-4.1-1.4-1.1-3-1.7-4.6-1.8zM455.2 549.5l20.1 23.7c2.3 2.7 4.3 4.8 5.2 6.1 6 6 9.4 14.1 9.4 22.5-.6 9.9-7 16.7-13 24l-14.1 16.5-7.3 8.6c-.3.3-.4.7-.5 1.1-.1.4 0 .8.2 1.1.2.4.4.7.8.9.3.2.7.3 1.1.3h73.4c11.2 0 25.3 9.4 24.5 23.7 0 6.5-2.7 12.7-7.3 17.3-4.7 4.6-11 7.2-17.6 7.2h-115c-7.6 0-27.9.8-33.6-16.5-1.2-3.6-1.4-7.5-.5-11.2 1.7-5.5 4.3-10.7 7.7-15.3 5.8-8.6 12-17.1 18.2-25.4 8-10.9 16.1-21.4 24.2-32.5.3-.4.4-.8.4-1.3s-.2-.9-.4-1.3l-29.2-34.3c-.2-.2-.4-.4-.7-.6-.3-.1-.6-.2-.9-.2s-.6.1-.9.2c-.3.1-.5.3-.7.6-7.8 10.4-42.1 56.5-49.4 65.9-7.3 9.3-25.3 9.9-35.3 0l-45.7-45.2c-.3-.3-.7-.5-1.1-.6-.4-.1-.8 0-1.2.1-.4.2-.7.4-.9.8-.2.3-.4.7-.3 1.1v86.9c.1 6.2-1.7 12.2-5.3 17.3-3.6 5.1-8.6 8.9-14.5 11-3.8 1.3-7.8 1.7-11.7 1.1-3.9-.6-7.7-2-10.9-4.3-3.3-2.3-5.9-5.3-7.7-8.8-1.8-3.5-2.8-7.4-2.8-11.3V522.4c.3-5.6 2.3-11 5.9-15.5 3.6-4.4 8.4-7.6 13.9-9.1 4.7-1.2 9.7-1.2 14.4 0 4.7 1.3 9 3.7 12.5 7.2l70.3 69.3c.2.2.5.4.7.5.3.1.6.1.9.1.3 0 .6-.1.8-.3.3-.1.5-.3.7-.6l49.9-68.1c2.3-2.8 5.2-5 8.5-6.5s6.9-2.4 10.5-2.4h129.8c3.6 0 7.1.8 10.3 2.2 3.2 1.5 6.1 3.6 8.5 6.2 2.3 2.6 4.1 5.7 5.1 9.1 1 3.4 1.3 6.9.8 10.4-.9 6-4 11.5-8.7 15.4-4.7 3.9-10.7 6.1-16.9 6h-72.7c-.4 0-.7.1-1 .3-.3.2-.6.5-.7.8-.2.3-.2.7-.2 1-.3.4-.2.8 0 1.1z"/>
</svg>
